<?xml version="1.0" standalone="no"?>
<!DOCTYPE svg PUBLIC "-//W3C//DTD SVG 20010904//EN"
 "http://www.w3.org/TR/2001/REC-SVG-20010904/DTD/svg10.dtd">
<svg version="1.0" xmlns="http://www.w3.org/2000/svg"
 width="512.000000pt" height="512.000000pt" viewBox="0 0 512.000000 512.000000"
 preserveAspectRatio="xMidYMid meet">

<g transform="translate(0.000000,512.000000) scale(0.100000,-0.100000)"
fill="#000000" stroke="none">
<path d="M539 4667 c-24 -13 -57 -43 -74 -66 l-30 -43 -3 -481 c-2 -325 0
-494 8 -519 14 -49 53 -94 104 -121 40 -22 49 -22 500 -25 532 -3 537 -3 605
74 61 70 63 87 59 599 -3 438 -4 451 -25 490 -27 50 -58 80 -105 100 -32 13
-107 15 -516 15 l-479 0 -44 -23z"/>
<path d="M2045 4673 c-47 -24 -86 -64 -106 -108 -17 -37 -19 -74 -19 -511 l0
-472 28 -53 c20 -39 41 -62 77 -84 l48 -30 487 0 487 0 48 30 c36 22 57 45 77
84 l28 53 0 469 c0 402 -2 475 -16 507 -19 47 -58 88 -106 113 -35 18 -64 19
-520 19 -420 -1 -487 -3 -513 -17z"/>
<path d="M3540 4674 c-46 -20 -77 -50 -103 -99 -21 -39 -22 -52 -25 -490 -4
-527 -3 -535 68 -605 70 -71 78 -72 605 -68 442 3 451 3 491 25 51 27 90 72
104 121 8 25 10 194 8 519 l-3 481 -30 43 c-16 23 -50 53 -74 66 l-44 23 -481
0 c-407 -1 -486 -3 -516 -16z"/>
<path d="M560 3184 c-45 -20 -87 -59 -111 -106 -18 -35 -19 -65 -19 -518 0
-453 1 -483 19 -518 25 -48 66 -87 113 -106 32 -14 105 -16 507 -16 l469 0 53
28 c39 20 62 41 84 77 l30 48 0 487 0 487 -30 48 c-22 36 -45 57 -84 77 l-53
28 -472 0 c-398 -1 -476 -3 -506 -16z"/>
<path d="M2062 3189 c-46 -14 -118 -88 -131 -135 -7 -25 -11 -202 -11 -494 0
-292 4 -469 11 -494 14 -50 82 -118 135 -134 59 -17 929 -17 988 0 53 16 118
81 134 134 17 59 17 929 0 988 -16 53 -81 118 -134 134 -51 15 -940 16 -992 1z"/>
<path d="M3529 3172 c-39 -20 -62 -41 -84 -77 l-30 -48 0 -487 0 -487 30 -48
c22 -36 45 -57 84 -77 l53 -28 469 0 c512 0 511 0 573 58 16 15 37 45 47 67
17 37 19 74 19 518 0 451 -1 480 -19 515 -25 48 -66 87 -113 106 -32 14 -105
16 -507 16 l-469 0 -53 -28z"/>
<path d="M590 1701 c-76 -24 -131 -74 -150 -139 -8 -25 -10 -194 -8 -519 l3
-481 30 -43 c17 -23 50 -53 74 -66 l44 -23 479 0 c409 0 484 2 516 15 47 20
78 50 105 100 21 39 22 52 25 490 4 512 2 529 -59 599 -67 75 -72 76 -588 75
-245 0 -457 -4 -471 -8z"/>
<path d="M2082 1700 c-57 -14 -108 -55 -136 -111 l-26 -53 0 -468 c0 -401 2
-474 16 -506 19 -47 58 -88 106 -113 35 -18 64 -19 515 -19 444 0 481 2 518
19 22 10 52 31 67 47 58 62 58 61 58 573 l0 469 -28 53 c-20 39 -41 62 -77 84
l-48 30 -466 2 c-256 1 -481 -2 -499 -7z"/>
<path d="M3568 1698 c-21 -5 -58 -28 -83 -50 -76 -67 -76 -72 -73 -604 3 -451
3 -460 25 -500 27 -51 72 -90 121 -104 25 -8 194 -10 518 -8 l481 3 39 27 c21
15 50 44 64 65 l25 37 3 480 c2 324 0 493 -8 518 -14 49 -53 94 -104 121 -40
22 -47 22 -506 24 -286 1 -479 -3 -502 -9z"/>
</g>
</svg>
